<svg width="30" height="37" viewBox="0 0 30 37" fill="none" xmlns="http://www.w3.org/2000/svg">
<path d="M12.5 27.75C14.7187 27.7494 16.8735 26.8334 18.6212 25.1476L24.1162 31.9248L25.8837 29.7449L20.3887 22.9677C21.7562 20.812 22.4995 18.1538 22.5 15.4166C22.5 8.61636 18.0137 3.08331 12.5 3.08331C6.98624 3.08331 2.49998 8.61636 2.49998 15.4166C2.49998 22.2169 6.98624 27.75 12.5 27.75ZM12.5 6.16665C16.6362 6.16665 20 10.3153 20 15.4166C20 20.518 16.6362 24.6666 12.5 24.6666C8.36374 24.6666 4.99998 20.518 4.99998 15.4166C4.99998 10.3153 8.36374 6.16665 12.5 6.16665Z" fill="black"/>
<path d="M14.265 13.2367C14.7387 13.8226 15 14.5965 15 15.4166H17.5C17.5011 14.6064 17.372 13.8039 17.1201 13.0556C16.8682 12.3072 16.4986 11.6279 16.0325 11.0568C14.14 8.72581 10.8587 8.72581 8.9675 11.0568L10.7325 13.2398C11.6825 12.0712 13.32 12.0743 14.265 13.2367Z" fill="black"/>
</svg>
